<svg id="Layer_1" data-name="Layer 1" xmlns="http://www.w3.org/2000/svg" viewBox="0 0 337.49 76.6"><defs><style>.cls-1{font-size:69.42px;fill:#383938;font-family:BebasNeueBold, Bebas Neue;letter-spacing:0.02em;}.cls-2{fill:#3359a8;}.cls-3{fill:#010101;}.cls-4{fill:#fff;}</style></defs><title>logo</title><text class="cls-1" transform="translate(144.58 64.17)">MEDICAL</text><path class="cls-2" d="M141.63,57.31v49.2H2.43c0-.32,0-.64,0-1v-47c0-.35,0-.7.08-1.16H3.83c5,0,9.92,0,14.87,0a1.9,1.9,0,0,0,2-1.15A6,6,0,0,1,28,53c2.07.67,3.45,2,3.49,4.37l4.17-.06c-.14,1.14-.33,2.84-.53,4.91C34.83,65,34.67,67,34.6,68c-.55,7.16-.91,10.73-1,11.82-.53,5.41-3,10-6.39,14.09a4.85,4.85,0,0,1-1.88,1.23c-1.95.85-2.87.44-3.57-1.58a6.45,6.45,0,0,1-.35-2.22,54.45,54.45,0,0,1,2-13.72c.71-2.52,1.25-5.09,1.86-7.61-2.66-1.19-4.41-.48-5.23,2.24q-2.14,7.23-4.06,14.53a14.21,14.21,0,0,0,.17,8.51,7.36,7.36,0,0,0,7.48,5.22,9.61,9.61,0,0,0,6.28-3.16c1-1,1.88-2,2.82-3l.34.21c0,.43,0,.86,0,1.28,0,1.64,0,3.28.09,4.92,0,.89.27,1.66,1.36,1.79,1.61.2,2.26-.07,2.7-1.2.83-2.12,1.68-4.24,2.47-6.37,2.22-6,5.84-11.17,9.69-16.19a2.41,2.41,0,0,1,2.76-1c.55.21,1,1.21,1.1,1.92.67,3.45-1.58,6.89-5.32,8.24-1.08.39-2.24.58-3.33,1-1.65.59-2.12,1.5-1.63,3.16a20.88,20.88,0,0,0,1.31,3.46,11.71,11.71,0,0,0,9,6.52c3.81.59,6.74-1.15,9.21-3.86,1.07-1.17,2.11-2.38,3.2-3.6A10.81,10.81,0,0,0,84.86,98c1,.76,1.88,1.62,2.91,2.28,2.49,1.58,5,1.5,7.1-.32a11,11,0,0,0,2.51-3c1.88-3.57,3.59-7.22,5.35-10.84.49-1,.85-2.08,1.42-3A2.6,2.6,0,0,1,107.87,82c-.07.61-.14,1.24-.2,1.87-.28,3.07-.74,6.12-.79,9.19a9.3,9.3,0,0,0,3.9,7.87,8.89,8.89,0,0,0,13-2.52c1.7-2.69,3.07-5.6,4.51-8.45,1.26-2.48,2.4-5,3.63-7.61-.73-.36-1.35-.7-2-1-1.63-.7-2.14-.51-2.91,1.13s-1.59,3.57-2.46,5.32c-1.2,2.4-2.39,4.8-3.73,7.11-1.73,3-5,3.16-6.93.39a8.88,8.88,0,0,1-1.47-3.71,21.21,21.21,0,0,1,2.93-13.91,6.44,6.44,0,0,0,.69-2.85,1.84,1.84,0,0,0-.91-1.46,2.3,2.3,0,0,0-1.82.32A4.76,4.76,0,0,0,112,75.23a5.11,5.11,0,0,1-4.63,2.48c-.75,0-1.06-.23-1.08-1a40,40,0,0,0-.26-4.9,12.81,12.81,0,0,0-1-3.78,2.13,2.13,0,0,0-3.61-.53,5.17,5.17,0,0,0-1.85,4,15.33,15.33,0,0,0,.43,4A9.24,9.24,0,0,1,99.18,83c-2,4-3.76,8.11-5.61,12.19a1.92,1.92,0,0,1-2.27,1.31c-.65-.22-1.11-1.21-1.49-1.94a2.92,2.92,0,0,1,0-1.42c.15-2.51.3-5,.49-7.54.12-1.7.64-3.53-1.86-4,.39-1.16.77-2.12,1-3.11a7.3,7.3,0,0,0-7.72-9.43c-3.75.26-6.8,2.16-9.5,4.64A26.8,26.8,0,0,0,66,83.2a50.56,50.56,0,0,1-6.46,11.72c-1.42,1.78-3.22,2.92-5.62,2.51s-3.78-2.17-4.85-4.31l1.12-.79c2.13-1.5,4.3-2.92,6.35-4.51a7.55,7.55,0,0,0,3-7.09A7.85,7.85,0,0,0,54.83,74a6.82,6.82,0,0,0-7.6,1.24A21.65,21.65,0,0,0,44,78.72c-1.59,2.09-3,4.29-4.61,6.51l-.92-.43L50.67,57.31l-4.13-.05c.1-.34.24-.85.41-1.48a41.82,41.82,0,0,0,1.1-5.58,4.18,4.18,0,0,0-.13-2.63,2.33,2.33,0,0,0-1.43-1.3,2.38,2.38,0,0,0-1.84.56c-2.38,1.7-3.17,9.56-3.25,10.47h5.17L40.12,70.72l-.27-.11c.47-4.39.95-8.77,1.44-13.31l-5.66,0a35,35,0,0,1,3.47-9.95A9.76,9.76,0,0,1,42.79,43a8.09,8.09,0,0,1,3.38-1,5.27,5.27,0,0,1,1.85.34,5.68,5.68,0,0,1,2.65,2.21c.66,1,1.06,2.21,1.16,4.64a23.3,23.3,0,0,1-1.16,8.13Zm-110.3.27h-11c1.12,3.1,3.83,4.54,7.3,4A4,4,0,0,0,31.33,57.58Z" transform="translate(-2.39 -41.99)"/><path class="cls-2" d="M81,86.48l3.35-1.1a26.45,26.45,0,0,1,0,3.68,12.79,12.79,0,0,1-3.7,7.49c-3,3-6.57,2.17-8-1.84-1.5-4.33-.8-8.6.73-12.77a14.5,14.5,0,0,1,4.55-6.79,9.27,9.27,0,0,1,3.6-1.74c2.84-.61,4.55,1.31,3.89,4.17a6.19,6.19,0,0,1-3.57,4.24c-2,1-2,1-1.34,3.15C80.6,85.43,80.75,85.88,81,86.48Z" transform="translate(-2.39 -41.99)"/><path class="cls-3" d="M60.29,38.7" transform="translate(-2.39 -41.99)"/><path class="cls-4" d="M15.94,53.44" transform="translate(-2.39 -41.99)"/><path class="cls-3" d="M18.38,55" transform="translate(-2.39 -41.99)"/><polyline class="cls-4" points="16.52 15.38 17.81 15.38 18.12 14.6"/><path class="cls-2" d="M35.55,58.28" transform="translate(-2.39 -41.99)"/></svg>