<svg id="Layer_1" data-name="Layer 1" xmlns="http://www.w3.org/2000/svg" viewBox="0 0 225.97 51.29"><defs><style>.cls-1{font-size:46.48px;font-family:BebasNeueBold, Bebas Neue;letter-spacing:0.02em;}.cls-1,.cls-2{fill:#fff;}</style></defs><title>logo-white</title><text class="cls-1" transform="translate(96.81 42.97)">MEDICAL</text><path class="cls-2" d="M95.22,13.15v33H2c0-.22,0-.43,0-.65V14c0-.24,0-.47.05-.78H3c3.32,0,6.64,0,10,0a1.27,1.27,0,0,0,1.35-.78,4,4,0,0,1,4.85-2.14,3,3,0,0,1,2.34,2.93l2.79,0c-.09.76-.22,1.9-.35,3.28-.18,1.85-.29,3.22-.34,3.85-.37,4.79-.6,7.18-.67,7.92a17.71,17.71,0,0,1-4.28,9.43,3.48,3.48,0,0,1-1.26.82c-1.3.57-1.92.3-2.39-1a4.47,4.47,0,0,1-.24-1.49A36.62,36.62,0,0,1,16,26.74c.48-1.69.84-3.41,1.25-5.09-1.78-.8-3-.33-3.5,1.49Q12.34,28,11.06,32.88a9.53,9.53,0,0,0,.11,5.69,5,5,0,0,0,5,3.5A6.45,6.45,0,0,0,20.39,40c.65-.65,1.26-1.34,1.89-2l.22.14v.86c0,1.1,0,2.2.07,3.29,0,.6.17,1.12.91,1.21,1.07.13,1.51,0,1.8-.81.56-1.42,1.13-2.84,1.66-4.27a41.79,41.79,0,0,1,6.48-10.83,1.6,1.6,0,0,1,1.85-.64c.37.14.65.81.74,1.29a5,5,0,0,1-3.56,5.51c-.73.26-1.5.39-2.23.65a1.47,1.47,0,0,0-1.09,2.12A13.91,13.91,0,0,0,30,38.77a7.85,7.85,0,0,0,6,4.37c2.55.39,4.51-.77,6.16-2.58.72-.79,1.41-1.6,2.14-2.42a7.24,7.24,0,0,0,12.91,2.23,22.14,22.14,0,0,0,1.95,1.52,3.72,3.72,0,0,0,4.75-.21,7.39,7.39,0,0,0,1.68-2c1.26-2.38,2.4-4.83,3.58-7.25.33-.68.57-1.4,1-2a1.73,1.73,0,0,1,2.49-.72c0,.4-.09.83-.13,1.25C72.29,33,72,35,72,37.06a6.24,6.24,0,0,0,2.61,5.27,6,6,0,0,0,8.69-1.69c1.13-1.8,2-3.75,3-5.66.84-1.66,1.6-3.36,2.43-5.09-.49-.24-.91-.47-1.35-.66-1.08-.47-1.43-.35-1.94.75s-1.07,2.39-1.65,3.57c-.8,1.6-1.6,3.21-2.5,4.75-1.15,2-3.32,2.12-4.64.27a5.92,5.92,0,0,1-1-2.49,14.23,14.23,0,0,1,2-9.32,4.1,4.1,0,0,0,.46-1.9,1.23,1.23,0,0,0-.61-1,1.58,1.58,0,0,0-1.22.21,3.45,3.45,0,0,0-.83,1.07,3.43,3.43,0,0,1-3.1,1.66c-.5,0-.71-.16-.72-.69a25.65,25.65,0,0,0-.17-3.28,8.47,8.47,0,0,0-.68-2.53A1.42,1.42,0,0,0,68.32,20a3.45,3.45,0,0,0-1.24,2.69,10,10,0,0,0,.29,2.7,6.2,6.2,0,0,1-.57,5C65.45,33,64.28,35.8,63,38.52a1.28,1.28,0,0,1-1.52.88c-.44-.14-.74-.81-1-1.3a2,2,0,0,1,0-1c.1-1.68.2-3.36.32-5,.09-1.14.43-2.37-1.24-2.67.26-.78.52-1.42.69-2.09A4.88,4.88,0,0,0,55.1,21a10.54,10.54,0,0,0-6.37,3.11,18,18,0,0,0-4.13,6.34,33.58,33.58,0,0,1-4.33,7.85A3.83,3.83,0,0,1,36.51,40c-1.64-.29-2.53-1.45-3.25-2.89L34,36.6c1.43-1,2.88-2,4.26-3a5.08,5.08,0,0,0,2-4.75,5.22,5.22,0,0,0-3.14-4.52,4.55,4.55,0,0,0-5.09.83,14.23,14.23,0,0,0-2.18,2.34c-1.07,1.4-2,2.87-3.09,4.36l-.62-.29,8.19-18.41-2.76,0c.06-.23.16-.57.27-1a27.86,27.86,0,0,0,.74-3.73,2.86,2.86,0,0,0-.09-1.77,1.53,1.53,0,0,0-1-.87,1.58,1.58,0,0,0-1.23.38c-1.59,1.13-2.12,6.4-2.17,7h3.46l-4.32,9-.18-.07,1-8.91-3.79,0A23.82,23.82,0,0,1,26.56,6.5,6.56,6.56,0,0,1,29,3.6a5.44,5.44,0,0,1,2.26-.7,3.49,3.49,0,0,1,1.24.23,3.73,3.73,0,0,1,1.77,1.48,5.5,5.5,0,0,1,.78,3.1,15.27,15.27,0,0,1-.78,5.44Zm-73.86.18H14A4.1,4.1,0,0,0,18.86,16,2.7,2.7,0,0,0,21.36,13.33Z" transform="translate(-1.99 -2.9)"/><path class="cls-2" d="M54.59,32.69,56.83,32a16.75,16.75,0,0,1,0,2.46,8.52,8.52,0,0,1-2.48,5c-2,2-4.4,1.45-5.33-1.23a12.35,12.35,0,0,1,.49-8.55,9.69,9.69,0,0,1,3-4.55,6.34,6.34,0,0,1,2.41-1.16c1.91-.41,3.05.88,2.61,2.78a4.19,4.19,0,0,1-2.4,2.85c-1.32.66-1.32.67-.89,2.11C54.35,32,54.46,32.29,54.59,32.69Z" transform="translate(-1.99 -2.9)"/><path class="cls-2" d="M40.75.69" transform="translate(-1.99 -2.9)"/></svg>